<svg width="36" height="29" viewBox="0 0 36 29" fill="none" xmlns="http://www.w3.org/2000/svg">
<path d="M18.749 14.9125C19.599 14.1702 20.2808 13.2521 20.7481 12.2205C21.2154 11.1889 21.4572 10.068 21.4572 8.93374C21.4572 6.80247 20.618 4.75849 19.1242 3.25145C17.6304 1.74441 15.6044 0.897766 13.4918 0.897766C11.3793 0.897766 9.35327 1.74441 7.85947 3.25145C6.36568 4.75849 5.52647 6.80247 5.52647 8.93374C5.52646 10.068 5.7683 11.1889 6.23559 12.2205C6.70287 13.2521 7.38467 14.1702 8.23469 14.9125C6.00461 15.9313 4.11256 17.5765 2.78476 19.6514C1.45696 21.7263 0.749598 24.1431 0.747253 26.6129C0.747253 27.0392 0.915094 27.448 1.21385 27.7494C1.51261 28.0508 1.91782 28.2201 2.34033 28.2201C2.76283 28.2201 3.16804 28.0508 3.4668 27.7494C3.76556 27.448 3.9334 27.0392 3.9334 26.6129C3.9334 24.0554 4.94044 21.6026 6.733 19.7941C8.52555 17.9857 10.9568 16.9697 13.4918 16.9697C16.0269 16.9697 18.4581 17.9857 20.2507 19.7941C22.0432 21.6026 23.0503 24.0554 23.0503 26.6129C23.0503 27.0392 23.2181 27.448 23.5169 27.7494C23.8156 28.0508 24.2208 28.2201 24.6433 28.2201C25.0658 28.2201 25.4711 28.0508 25.7698 27.7494C26.0686 27.448 26.2364 27.0392 26.2364 26.6129C26.2341 24.1431 25.5267 21.7263 24.1989 19.6514C22.8711 17.5765 20.979 15.9313 18.749 14.9125ZM13.4918 13.7553C12.5466 13.7553 11.6226 13.4726 10.8366 12.9427C10.0507 12.4129 9.43814 11.6599 9.07641 10.7789C8.71468 9.89786 8.62004 8.9284 8.80445 7.9931C8.98885 7.0578 9.44403 6.19868 10.1124 5.52437C10.7808 4.85006 11.6324 4.39085 12.5595 4.2048C13.4865 4.01876 14.4475 4.11425 15.3208 4.47918C16.194 4.84411 16.9405 5.46211 17.4656 6.25501C17.9908 7.04792 18.271 7.98012 18.271 8.93374C18.271 10.2125 17.7675 11.4389 16.8712 12.3431C15.975 13.2473 14.7594 13.7553 13.4918 13.7553ZM29.0084 14.2696C30.0279 13.1114 30.6938 11.6805 30.9261 10.1493C31.1584 8.61813 30.947 7.05184 30.3175 5.63899C29.688 4.22615 28.6671 3.02697 27.3778 2.18581C26.0885 1.34465 24.5857 0.897352 23.0503 0.897766C22.6278 0.897766 22.2226 1.0671 21.9238 1.3685C21.625 1.66991 21.4572 2.07871 21.4572 2.50496C21.4572 2.93122 21.625 3.34001 21.9238 3.64142C22.2226 3.94283 22.6278 4.11216 23.0503 4.11216C24.3178 4.11216 25.5334 4.62015 26.4297 5.52437C27.326 6.42859 27.8295 7.65498 27.8295 8.93374C27.8272 9.77791 27.6053 10.6067 27.186 11.3372C26.7666 12.0677 26.1645 12.6743 25.4399 13.0964C25.2037 13.2338 25.0064 13.4301 24.8669 13.6665C24.7275 13.9029 24.6505 14.1714 24.6433 14.4464C24.6367 14.7193 24.699 14.9893 24.8244 15.2312C24.9498 15.473 25.1342 15.6786 25.3602 15.8286L25.9815 16.2465L26.1886 16.359C28.1089 17.2779 29.7289 18.7312 30.8579 20.5478C31.9868 22.3645 32.5777 24.4688 32.5609 26.6129C32.5609 27.0392 32.7287 27.448 33.0275 27.7494C33.3263 28.0508 33.7315 28.2201 34.154 28.2201C34.5765 28.2201 34.9817 28.0508 35.2805 27.7494C35.5792 27.448 35.7471 27.0392 35.7471 26.6129C35.7601 24.1465 35.1478 21.7178 33.9683 19.5574C32.7889 17.397 31.0815 15.5768 29.0084 14.2696Z" fill="white"/>
</svg>
